<svg xmlns="http://www.w3.org/2000/svg" width="152.761" height="225.888" viewBox="0 0 152.761 225.888"><g transform="translate(0)"><g transform="translate(61.267 0)"><path d="M-490.736,619.267a16.588,16.588,0,0,1-8.316-2.235,16.664,16.664,0,0,1-6.1-22.763l50.775-87.946-50.775-87.945a16.664,16.664,0,0,1,6.1-22.763,16.664,16.664,0,0,1,22.763,6.1l60.4,104.609-60.4,104.609A16.658,16.658,0,0,1-490.736,619.267Z" transform="translate(507.387 -393.378)" fill="#ed1c24"/></g><g transform="translate(0 0)"><path d="M-343.672,619.267a16.586,16.586,0,0,1-8.316-2.235,16.664,16.664,0,0,1-6.1-22.763l50.775-87.946-50.775-87.945a16.664,16.664,0,0,1,6.1-22.763,16.664,16.664,0,0,1,22.763,6.1l60.4,104.609-60.4,104.609A16.659,16.659,0,0,1-343.672,619.267Z" transform="translate(360.323 -393.378)" fill="#ed1c24"/></g></g></svg>