<svg xmlns="http://www.w3.org/2000/svg" xmlns:xlink="http://www.w3.org/1999/xlink" width="437.516" height="388.412" viewBox="0 0 437.516 388.412"><defs><style>.a{fill:url(#a);}</style><linearGradient id="a" y1="0.5" x2="1" y2="0.5" gradientUnits="objectBoundingBox"><stop offset="0" stop-color="#002e8f"/><stop offset="1" stop-color="#4e176d" stop-opacity="0"/></linearGradient></defs><path class="a" d="M835.288,730.611a46.445,46.445,0,0,0-65.686,0l-32.678,32.675a21.062,21.062,0,0,1-17.549-20.5,79.163,79.163,0,0,0-2.929-108.861h0a79.164,79.164,0,0,0-111.952,0L579.66,658.758a21.082,21.082,0,0,1-18.807-19.313l27.258-27.258a36.088,36.088,0,1,0-51.035-51.038l-77.467,77.47a36.082,36.082,0,0,0,0,51.032h0a36.08,36.08,0,0,0,51.035,0l29.85-29.845a21.077,21.077,0,0,1,19.31,18.8L434.562,803.854A79.165,79.165,0,0,0,546.519,915.808L697.857,764.467a21.064,21.064,0,0,1,20.345,17.54l-48.3,48.3a46.445,46.445,0,0,0,0,65.686v0a46.447,46.447,0,0,0,65.683,0l99.7-99.7A46.442,46.442,0,0,0,835.288,730.611Z" transform="translate(-411.376 -550.581)"/></svg>